<?xml version="1.0" encoding="UTF-8"?>
<svg id="Capa_2" data-name="Capa 2" xmlns="http://www.w3.org/2000/svg" viewBox="0 0 266 249.63">
  <defs>
    <style>
      .cls-1 {
        fill: #4d4093;
      }

      .cls-2 {
        fill: #fff;
      }

      .cls-3 {
        fill: #382871;
      }

      .cls-4 {
        fill: #efe752;
      }

      .cls-5 {
        fill: #6bbea0;
      }

      .cls-6 {
        fill: #ddb136;
      }

      .cls-7 {
        fill: #ef7b39;
      }
    </style>
  </defs>
  <path class="cls-3" d="M41.1,0H5.77c-.44.13-3.65,1.11-5.11,4.44-.2.46-1.37,3.24,0,6.33,1.42,3.21,4.44,4.19,4.89,4.33h28.22c4.32,15.7,8.64,31.41,12.96,47.11h15.7c-5.28-19.46-10.57-38.91-15.85-58.37,0,0-1.7-3.85-5.48-3.85h0Z"/>
  <path class="cls-1" d="M46.73,62.23l32.67,120.41s2.33,4.59,8,4.41l77.37-7.52V62.53l-118.04-.3h0Z"/>
  <path class="cls-3" d="M164.77,179.53l3.78-.56,76.33-7.41s4.61-1.19,5.19-4.69,15.93-96.8,15.93-96.8c0,0-.36-6.66-7.31-7.05s-93.95-.51-93.95-.51l.03,117v.02Z"/>
  <path class="cls-7" d="M78.71,62.31v-24.91s-.44-5.78,6.83-5.78h71.33v30.89l-78.17-.2h.01Z"/>
  <path class="cls-6" d="M234.78,62.75V22.51s-.12-6.08-6.1-6.44-32.86,0-32.86,0v46.46s38.96.22,38.96.22Z"/>
  <path class="cls-4" d="M156.88,31.62v-9.33s-.28-6.54,6.39-6.38c6.67.16,32.56.16,32.56.16v46.46h-38.94v-30.91h0Z"/>
  <path class="cls-5" d="M213.3,16.09l4.94-4.49s1.41-2.81.74-6.04-5.33-5.22-5.33-5.22c0,0-5.11-.89-8.78,2.89-3.67,3.78-9.06,9.28-9.06,9.28v3.56l17.48.02h0Z"/>
  <path class="cls-5" d="M178.34,15.9l-4.94-4.49s-1.41-2.81-.74-6.04,5.33-5.22,5.33-5.22c0,0,5.11-.89,8.78,2.89,3.67,3.78,9.06,9.28,9.06,9.28v3.56l-17.48.02h0Z"/>
  <path class="cls-4" d="M110.15,100.12v34.22c.85,3.5,3.93,6.01,7.44,6.11,3.72.11,7.09-2.5,7.94-6.22v-34.11c-.64-3.74-3.91-6.5-7.69-6.5s-7.02,2.72-7.69,6.43v.07Z"/>
  <path class="cls-4" d="M157.04,100.12v34.22c.85,3.5,3.93,6.01,7.44,6.11,3.72.11,7.09-2.5,7.94-6.22v-34.11c-.64-3.74-3.91-6.5-7.69-6.5s-7.02,2.72-7.69,6.43v.07Z"/>
  <path class="cls-4" d="M203.19,100.12v34.22c.85,3.5,3.93,6.01,7.44,6.11,3.72.11,7.09-2.5,7.94-6.22v-34.11c-.64-3.74-3.91-6.5-7.69-6.5s-7.02,2.72-7.69,6.43v.07Z"/>
  <path class="cls-1" d="M102.8,249.42c-8.08.03-13.56-4.39-15.48-6-2.07-1.73-7.31-6.1-8.52-13.7-.86-5.43.76-9.82,1.63-11.78-1.59-.43-3.88-1.23-6.3-2.81-3.93-2.58-5.94-5.74-6.89-7.26-3.27-5.26-3.69-10.3-3.78-12-.27-5.43,1.33-9.41,1.7-10.3.66-1.58,2.3-5.41,6.3-8.59,2.07-1.65,4.07-2.58,5.46-3.1.85,3.02,1.7,6.04,2.55,9.06.4.65,1.18,1.72,2.49,2.64,1.43,1,2.82,1.35,3.59,1.49-.79.1-2.33.42-3.8,1.57-2.18,1.71-3.28,4.58-2.89,7.33.47,3.29,2.87,5.08,3.22,5.33,2.18,1.56,4.7,1.46,5.44,1.44,5.15-.14,35.41-.05,77.09,0v15.76h-40.57c.65,1.53,1.45,3.92,1.63,6.92.32,5.29-1.49,9.2-2.22,10.74-2.55,5.35-6.47,8.26-8.07,9.33-5.64,3.77-11.22,3.92-12.59,3.93h.01Z"/>
  <path class="cls-2" d="M102.4,218.34c-3.19-.12-5.38,2.11-5.72,2.47-1.9,2-2.77,5.04-1.86,7.89,1.05,3.28,4.27,5.68,7.83,5.5,4.04-.21,7.3-3.68,7.42-7.69.13-4.54-3.83-8.02-7.67-8.17Z"/>
  <path class="cls-3" d="M189.71,218.34c-6.26.07-12.62.08-19.06,0-1.99-.02-3.98-.05-5.95-.09-.03-5.17-.05-10.34-.08-15.51h49.8c1.51.24,3.58.71,5.89,1.72,1.1.48,5.66,2.58,9.3,7.19,1.08,1.36,6.65,8.74,4.96,18.59-1.46,8.49-7.76,15.55-15.89,18.22-9.36,3.08-19.77-.1-25.6-7.26-.3-.37-6.53-8.27-4.89-18.07.33-1.96.96-3.63.96-3.63.18-.43.35-.77.44-.95l.1-.2h.02Z"/>
  <path class="cls-2" d="M211.02,218.34c-3.19-.12-5.38,2.11-5.72,2.47-1.9,2-2.77,5.04-1.86,7.89,1.05,3.28,4.27,5.68,7.83,5.5,4.04-.21,7.3-3.68,7.42-7.69.13-4.54-3.83-8.02-7.67-8.17Z"/>
</svg>