<svg width="360" height="360" viewBox="0 0 360 360" fill="none" xmlns="http://www.w3.org/2000/svg">
<path d="M180 360C279.411 360 360 279.411 360 180C360 80.5887 279.411 0 180 0C80.5887 0 0 80.5887 0 180C0 279.411 80.5887 360 180 360Z" fill="#6D49F2"/>
<mask id="mask0_1097_16314" style="mask-type:luminance" maskUnits="userSpaceOnUse" x="0" y="0" width="360" height="360">
<path d="M180 360C279.411 360 360 279.411 360 180C360 80.5887 279.411 0 180 0C80.5887 0 0 80.5887 0 180C0 279.411 80.5887 360 180 360Z" fill="white"/>
</mask>
<g mask="url(#mask0_1097_16314)">
<path fill-rule="evenodd" clip-rule="evenodd" d="M180 46.2861C219.765 46.2861 252 78.5216 252 118.286L252.001 126.214C259.298 127.439 264.857 133.785 264.857 141.429V159.429C264.857 167.211 259.096 173.647 251.607 174.705C248.95 200.169 233.02 221.685 210.859 232.214L210.857 255.858H216C267.126 255.858 308.572 297.303 308.572 348.429V360H51.4287V348.429C51.4287 297.303 92.8743 255.858 144 255.858H149.143L149.143 232.214C126.981 221.686 111.05 200.169 108.392 174.705C100.904 173.647 95.143 167.211 95.143 159.429V141.429C95.143 133.784 100.703 127.438 108 126.214L108 118.286C108 78.5216 140.236 46.2861 180 46.2861Z" fill="#EAC7A8"/>
<path fill-rule="evenodd" clip-rule="evenodd" d="M149.141 232.213C158.494 236.656 168.956 239.143 180 239.143C191.043 239.143 201.505 236.657 210.857 232.214L210.858 239.073C202.425 244.798 192.246 248.143 181.286 248.143C169.186 248.143 158.038 244.066 149.141 237.211L149.141 232.213Z" fill="black" fill-opacity="0.24"/>
<path fill-rule="evenodd" clip-rule="evenodd" d="M169.714 165.857C169.714 172.958 174.917 176.143 180 176.143C185.082 176.143 190.285 172.958 190.285 165.857C187.499 166.798 184.038 167.269 179.901 167.269C175.809 167.269 172.413 166.798 169.714 165.857Z" fill="black" fill-opacity="0.16"/>
<path fill-rule="evenodd" clip-rule="evenodd" d="M210.702 259.201H215.819C266.69 259.201 307.927 299.617 307.927 349.473V360.757H52.0703V349.473L52.0831 347.98C52.8967 298.813 93.8173 259.201 144.179 259.201H149.296C149.296 259.201 149.044 274.774 179.989 274.774C210.933 274.774 210.702 259.201 210.702 259.201Z" fill="#845FE6"/>
<path fill-rule="evenodd" clip-rule="evenodd" d="M162.445 294.48L180.026 276.774L197.607 294.48L233.547 258.284C227.918 257.212 222.118 256.629 216.179 256.629H211.01C211.01 256.629 211.244 272.794 179.989 272.794C148.733 272.794 148.989 256.629 148.989 256.629H143.82C137.897 256.629 132.111 257.207 126.495 258.274L162.445 294.48Z" fill="white"/>
<path fill-rule="evenodd" clip-rule="evenodd" d="M216.18 255.344H211.038V360.757H309.214V349.044C309.214 297.294 267.562 255.344 216.18 255.344Z" fill="#191919"/>
<path fill-rule="evenodd" clip-rule="evenodd" d="M148.989 255.344H143.82C92.9526 255.344 51.6209 296.46 50.7978 347.494L50.7861 349.044V360.757H148.989V255.344Z" fill="#191919"/>
<path fill-rule="evenodd" clip-rule="evenodd" d="M136.766 255.608L102.385 311.216L131.251 328.236L113.474 353.055L121.922 360.757H148.988V255.344C148.988 255.344 144.983 255.398 136.766 255.608Z" fill="#2B2B2B"/>
<path fill-rule="evenodd" clip-rule="evenodd" d="M223.431 255.633L257.641 311.218L228.774 328.236L246.553 353.055L238.102 360.757L211.037 360.756V255.343C211.037 255.343 215.215 255.423 223.431 255.633Z" fill="#2B2B2B"/>
<path fill-rule="evenodd" clip-rule="evenodd" d="M201.625 261.201L184.898 267.461C184.448 265.714 182.991 264.426 181.244 264.426H178.808C177.054 264.426 175.594 265.722 175.149 267.479L158.375 261.201C155.702 260.311 153 262.488 153 265.533V282.183C153 285.227 155.702 287.404 158.375 286.513L175.149 280.237C175.594 281.992 177.054 283.288 178.808 283.288H181.244C182.991 283.288 184.448 281.999 184.897 280.254L201.625 286.513C204.298 287.404 207 285.227 207 282.183V265.533C207 262.488 204.298 260.311 201.625 261.201Z" fill="#191919"/>
<path fill-rule="evenodd" clip-rule="evenodd" d="M155.723 191.736C157.083 203.94 167.433 213.429 180 213.429C192.605 213.429 202.981 203.881 204.289 191.623C204.395 190.636 203.293 189 201.912 189C182.763 189 168.092 189 158.254 189C156.866 189 155.587 190.515 155.723 191.736Z" fill="black" fill-opacity="0.7"/>
<path fill-rule="evenodd" clip-rule="evenodd" d="M186.428 203.143C190.278 203.143 193.769 204.681 196.319 207.176C191.993 211.064 186.273 213.428 180 213.428C173.727 213.428 168.006 211.064 163.68 207.177C166.231 204.681 169.721 203.143 173.571 203.143C175.887 203.143 178.072 203.699 180.001 204.685C181.929 203.699 184.114 203.143 186.428 203.143Z" fill="#FF4F6D" fill-opacity="0.7"/>
<path fill-rule="evenodd" clip-rule="evenodd" d="M200.571 189C200.571 192.55 197.693 195.429 194.142 195.429H167.142C163.592 195.429 160.714 192.55 160.714 189H200.571Z" fill="white"/>
<path fill-rule="evenodd" clip-rule="evenodd" d="M128.777 144.576C131.151 139.691 136.497 136.286 142.711 136.286C148.903 136.286 154.233 139.667 156.62 144.524C157.329 145.967 156.32 147.147 155.302 146.272C152.151 143.563 147.675 141.871 142.711 141.871C137.902 141.871 133.552 143.459 130.42 146.021C129.274 146.958 128.083 146.004 128.777 144.576Z" fill="black" fill-opacity="0.6"/>
<path fill-rule="evenodd" clip-rule="evenodd" d="M203.349 144.576C205.723 139.691 211.068 136.286 217.282 136.286C223.474 136.286 228.804 139.667 231.191 144.524C231.9 145.967 230.891 147.147 229.873 146.272C226.722 143.563 222.247 141.871 217.282 141.871C212.473 141.871 208.123 143.459 204.991 146.021C203.846 146.958 202.654 146.004 203.349 144.576Z" fill="black" fill-opacity="0.6"/>
<path d="M128.54 127.451C130.462 115.206 146.646 106.854 158.353 112.245C159.643 112.839 161.17 112.274 161.764 110.984C162.358 109.694 161.794 108.167 160.504 107.573C145.734 100.772 125.917 110.999 123.459 126.653C123.239 128.056 124.198 129.372 125.601 129.592C127.004 129.812 128.32 128.853 128.54 127.451Z" fill="black" fill-opacity="0.6"/>
<path d="M231.459 127.451C229.537 115.206 213.353 106.854 201.646 112.245C200.356 112.839 198.829 112.274 198.235 110.984C197.641 109.694 198.205 108.167 199.495 107.573C214.265 100.772 234.082 110.999 236.54 126.653C236.76 128.056 235.801 129.372 234.398 129.592C232.995 129.812 231.679 128.853 231.459 127.451Z" fill="black" fill-opacity="0.6"/>
<path fill-rule="evenodd" clip-rule="evenodd" d="M203.694 218.788C200.462 221.738 197.019 223.064 192.668 222.137C191.919 221.977 188.867 216.302 181.285 216.302C173.704 216.302 170.652 221.977 169.903 222.137C165.552 223.064 162.109 221.738 158.877 218.788C152.802 213.243 147.75 205.596 150.786 197.253C152.368 192.905 154.941 188.131 159.622 186.745C164.621 185.266 171.639 186.742 176.676 185.732C178.308 185.405 180.091 184.823 181.285 183.857C182.48 184.823 184.263 185.405 185.894 185.732C190.932 186.742 197.95 185.266 202.949 186.745C207.63 188.131 210.203 192.905 211.786 197.253C214.821 205.596 209.769 213.243 203.694 218.788ZM253.39 126C249.005 136.8 250.699 150.246 249.887 161.583C249.228 170.798 247.291 184.61 239.108 190.562C234.924 193.605 227.307 198.72 221.84 197.293C218.076 196.311 217.674 185.516 212.728 181.475C207.118 176.892 200.112 174.878 193.049 175.189C190.001 175.323 183.837 175.291 181.286 177.635C178.735 175.291 172.571 175.323 169.523 175.189C162.459 174.878 155.453 176.892 149.843 181.475C144.897 185.516 144.496 196.311 140.732 197.293C135.265 198.72 127.648 193.605 123.463 190.562C115.28 184.61 113.344 170.798 112.684 161.583C111.873 150.246 113.566 136.8 109.181 126C107.048 126 108.455 146.737 108.455 146.737V172.909C108.496 192.566 120.774 221.986 147.996 233.22C154.654 235.967 169.734 240.429 181.286 240.429C192.837 240.429 207.918 236.392 214.575 233.644C241.798 222.41 254.075 192.566 254.116 172.909V146.737C254.116 146.737 255.523 126 253.39 126Z" fill="#2C1B18"/>
</g>
</svg>
