<?xml version="1.0" encoding="UTF-8"?><svg xmlns="http://www.w3.org/2000/svg" width="1052.29" height="1055.16" viewBox="0 0 1052.29 1055.16"><g id="a"><path d="M210.09,322.17l-33.59-125.4s36.25-13.99,39.16-15.78l37.18,138.47-42.75,2.71Z" fill="#c7c7c7"/><path d="M200.08,350.33l109.37,398.99s-25.02,9.38-35.3,26.81-22.79,47.37-14.75,77.31,20.56,37.09,20.56,37.09c0,0,13.41,21.9,38.43,25.47h2.01s9.22-36.48,55.13-54.24c45.92-17.76,93.34,15.08,91.5,17.76,0,0,15.25,11.9,26.64,41.56l247.01.28s7.82-32.85,42.45-52.28c34.63-19.44,77.09-7.15,77.09-7.15,0,0,24.8,9.16,39.32,27.26s17.65,32.17,17.65,32.17h19.44s13.85.89,23.24-19.89c9.38-20.78-9.83-35.53-9.83-35.53l-10.05-5.59h-28.6l-47.82.45-76.75.45-442.96.67-2.19-1.68c-19.12-14.7-20.52-43.02-2.95-59.54h0s623.74-60.77,623.74-60.77c0,0,16.44-5.45,19.54-23.46,3.1-18.01,58.54-351.91,58.54-351.91,0,0,2.57-13.52-1.12-28.49-3.69-14.97-23.01-18.77-23.01-18.77H225.27c-17.23,0-29.74,16.4-25.19,33.02Z" fill="#381d73"/><circle cx="406.2" cy="948.41" r="92.28" fill="#5e5182"/><circle cx="828.94" cy="948.41" r="92.28" fill="#5e5182"/><path d="M349.87,1021.5s124.03,29.13,143.8-100.41c0,0,10.62,22.56,1.12,53.2-9.5,30.64-31.95,46.97-31.95,46.97,0,0-24.24,20.77-58.65,19.42s-54.32-19.19-54.32-19.19Z" fill="#473f6b"/><path d="M772.4,1021.5s124.03,29.13,143.8-100.41c0,0,10.62,22.56,1.12,53.2-9.5,30.64-31.95,46.97-31.95,46.97,0,0-24.24,20.77-58.65,19.42s-54.32-19.19-54.32-19.19Z" fill="#473f6b"/><circle cx="406.2" cy="948.41" r="34.07" fill="#d1d1d1"/><circle cx="828.94" cy="948.41" r="34.07" fill="#d1d1d1"/><path d="M406.2,917.74s-26.98,1.17-29.87,29.87c0,0,8.84-21.83,29.87-29.87Z" fill="#fff"/><path d="M828.94,917.74s-26.98,1.17-29.87,29.87c0,0,8.84-21.83,29.87-29.87Z" fill="#fff"/><path d="M176.51,196.77l38.65-13.18s7.21-5.03,8.88-9.89,0-17.43,0-17.43c0,0-2.18-7.54-6.87-11.4s-14.58-22.29-14.91-28.66-5.7-24.97-5.7-24.97c0,0-3.35-6.03-10.72-10.72s-12.23-6.37-22.29-5.53-14.41,3.85-20.44,4.52-22.12,1.68-39.55-3.18-34.02-8.88-34.02-8.88c0,0-24.47-4.19-39.38,5.19-14.91,9.38-18.77,30.33-18.77,30.33,0,0-3.18,10.72,3.18,23.13,6.37,12.4,26.48,14.41,26.48,14.41,0,0,4.86.67,9.38-1.01s14.91-6.7,14.91-6.7c0,0,7.88-4.19,15.58,0s14.41,9.55,14.41,9.55c0,0,10.89,3.18,18.94-1.34,8.04-4.52,20.28,2.35,20.28,2.35,0,0,8.55,4.69,13.07,15.42s3.02,27.48,3.02,27.48c0,0-1.68,6.03,5.36,9.05s20.5,1.45,20.5,1.45Z" fill="#4c3687"/><path d="M338.72,800.72l607.64-94.29s87.24-400.17,62.44-389.11c0,0,17.72-2.08,26.88,11.17s4.29,39.49,4.29,39.49l-57.98,348.52s-.22,21.58-19.54,23.46-623.74,60.77-623.74,60.77Z" fill="#381d73"/><path d="M486.64,904.17h260.84s-6.12,13.41-6.79,17.2h-246.23s-3.29-9.83-7.82-17.2Z" fill="#100a3a"/><path d="M917.2,921.37l22.59-.35s23.52-4.34,22.64-32.22c0,0-9.56,15.36-52.64,15.36,0,0,6.63,12.29,7.41,17.2Z" fill="#100a3a"/><path d="M43.56,140.24s9.61-11.62,27.71-16.98c18.1-5.36,21,7.37,30.16,8.49s10.95-5.59,23.68-4.47c12.74,1.12,24.13,9.61,28.82,24.13,4.69,14.52,1.34,28.15,6.26,31.06s21.45.89,29.72-2.9c8.27-3.8,23.01-17.58,22.57-26.67s-11.84-20.03-13.41-28.3-.45-26.59-.45-26.59l2.25,10.01,1.16,5.97.39,3.52s2.29,12.96,14.13,26.76c0,0,5.64,3.57,7.37,11.12s1.96,19.49-4.41,24.61c-6.37,5.11-32.01,13.32-32.01,13.32l-10.96,3.45s-5.46,1.83-18.28-.77-7.54-14.91-7.54-14.91c0,0,1.93-24.8-11.81-34.35-13.74-9.55-22.04-6.62-22.04-6.62,0,0-4.36,2.68-10.64,3.18s-12.4-1.84-12.4-1.84c0,0-8.46-6.87-12.23-8.13s-8.46-4.19-19.77,1.26c-11.31,5.45-13.99,6.03-17.85,5.78" fill="#4c3687"/><path d="M620.27,317.31v456.29l-243.94,23.46-37.61,3.66s-7.59,7.96-9.42,13.67c-1.83,5.71-3.15,21.08-1.25,26.14,1.9,5.06.73,9.35,15.81,21.42h30.05s-40.44,13.8-53.51,54.07c0,0-28.24-1.2-46.96-31.82-18.73-30.63-16.42-42.9-16.12-59.72.3-16.82,9.44-44.38,27.99-60.99,18.56-16.61,24.14-14.15,24.14-14.15l-110.31-401.29s-1.28-16.49,7.08-22.47c0,0,2.23-2.98,5.99-4.77s5.9-2.95,11.1-3.41l396.96-.07Z" fill="#4c3687"/><path d="M18.98,108.06l12.51,1.12s-14.08-23.68,16.53-34.41c0,0-33.07,1.12-29.05,33.29Z" fill="#b5a8f4"/><rect x="422.94" y="431.05" width="60.76" height="199.44" rx="16.52" ry="16.52" fill="#f2ed49"/><rect x="604.51" y="431.05" width="60.76" height="199.44" rx="16.52" ry="16.52" fill="#f2ed49"/><rect x="786.08" y="431.05" width="60.76" height="199.44" rx="16.52" ry="16.52" fill="#f2ed49"/><path d="M475.23,434.98v177.93s-1.73,16.73-16.73,16.73-21.21-.1-21.21-.1c0,0,2.47.95,6.2.95s20.66,0,20.66,0c0,0,5.29-.08,10.3-3.39s7.1-8.02,7.1-8.02c0,0,1.81-3.48,2.09-7.64,0,0,.05-1.8.05-4.68s0-156,0-156c0,0-.13-9.96-8.47-15.77Z" fill="#aa9622"/><path d="M656.8,434.98v177.93s-1.73,16.73-16.73,16.73-21.21-.1-21.21-.1c0,0,2.47.95,6.2.95s20.66,0,20.66,0c0,0,5.29-.08,10.3-3.39,5.02-3.31,7.1-8.02,7.1-8.02,0,0,1.81-3.48,2.09-7.64,0,0,.05-1.8.05-4.68s0-156,0-156c0,0-.13-9.96-8.47-15.77Z" fill="#aa9622"/><path d="M838.37,434.98v177.93s-1.73,16.73-16.73,16.73-21.21-.1-21.21-.1c0,0,2.47.95,6.2.95s20.66,0,20.66,0c0,0,5.29-.08,10.3-3.39,5.02-3.31,7.1-8.02,7.1-8.02,0,0,1.81-3.48,2.09-7.64,0,0,.05-1.8.05-4.68s0-156,0-156c0,0-.13-9.96-8.47-15.77Z" fill="#aa9622"/></g><g id="b"><g id="c"><path d="M302.75,264.69h81.55v52.62h-81.55s0-53.29,0-52.62Z" fill="#f27c38"/><path d="M384.3,233.19v-77.09h-69.94s-11.73.67-11.73,11.73v65.36s82,.34,81.67,0Z" fill="#f27c38"/><path d="M413.8,233.34h81.11v-64.95s-.22-12.29-12.29-12.29h-68.82s-.22,77.23,0,77.23Z" fill="#f27c38"/><rect x="413.7" y="264.69" width="81.21" height="52.63" fill="#f27c38"/><path d="M384.3,156.1h29.49v77.23h81.11v31.35h-81.21v52.63h-29.39v-52.62h-81.55v-31.5h81.55s0-33.56,0-56.39c0-6.35-.03-11.97,0-15.7.03-3.22.14-4.99,0-4.99Z" fill="#f2ed49"/><path d="M310.77,233.19v-68.59s1.37-8.5,9.93-8.5c0,0-15.92-1.96-17.91,8.41l-.14,68.67h8.13Z" fill="#ffc7ae"/><path d="M310.77,264.69v52.63h-8.02v-52.62s8.02-.01,8.02,0Z" fill="#ffc7ae"/><path d="M310.77,167.5s-.75-6.03,7.29-6.7,66.25,0,66.25,0v-4.69h-63.61l-7.5,1.01-3.69,4.69-.84,5.7h2.1Z" fill="#ffc7ae"/><path d="M384.3,160.79h29.49v-4.69h-29.49s-.17,4.86,0,4.69Z" fill="#fffcc5"/><path d="M413.79,160.79h78.81s-3.5-5.36-10.65-4.69-68.15,0-68.15,0v4.69Z" fill="#ffc7ae"/><polygon points="310.77 233.19 310.77 264.69 302.75 264.69 302.64 233.19 310.77 233.19" fill="#fffcc5"/><polygon points="481.69 160.79 481.69 233.34 494.9 233.34 494.9 167.5 492.6 160.79 481.69 160.79" fill="#a35229"/><polygon points="481.69 264.69 482.03 317.31 494.9 317.31 494.9 264.69 481.69 264.69" fill="#a35229"/><rect x="481.69" y="233.34" width="13.21" height="31.35" fill="#9b9418"/></g><g id="d"><path d="M527.53,65.95s.84,8.55,12.4,17.34c11.56,8.8,12.07,8.8,12.07,8.8h35.02s-26.07-14.1-33.35-31.81c0,0-9.81-3.15-14.91-2.55s-7.37-1.66-7.37-1.66l-3.27,5.36-.59,4.52Z" fill="#288961"/><path d="M598.47,91.21s-27.15-26.72-38.21-29.29c-11.06-2.57-19.33-5.81-25.81-3.35s-6.93,7.37-6.93,7.37c0,0-2.35-15.75,3.02-22.79,5.36-7.04,12.74-14.41,25.25-14.08,12.51.34,20.56,6.03,20.56,6.03,0,0,17.32,15.31,26.59,28.26,9.27,12.96,7.8,11.88,7.8,11.88,0,0-9.81,5.81-12.27,15.96Z" fill="#7befc2"/><path d="M651.2,92.09s28.74-16.84,31.5-33.35c2.77-16.51,26.14-2.85,26.14-2.85l1.68,4.25s2.85,13.94-24.05,31.07c-26.9,17.13-35.28.87-35.28.87Z" fill="#288961"/><path d="M624.84,75.74s18.87-37.18,46.8-46.67c27.93-9.49,36.42,20.68,36.42,20.68l2.46,10.39s-6.7-5.26-18.55-2.35c-11.84,2.9-34.86,17.95-34.86,17.95,0,0-9.64,5.02-19.57,16.22,0,0-1.64-13.91-12.71-16.22Z" fill="#7befc2"/><path d="M472.9,155.95v-47.44s-2.01-16.42,16.42-16.42h255.05s19.44-3.02,19.44,19.44v66.03s-22.46,4.69-28.15,15.08c0,0-.95,2.12-.84,5.53s0,33.24,0,33.24c0,0,3.52,5.36,7.21,6.7v79.21h-247.12v-149.81s-.89-11.45-11.45-11.45-10.56-.09-10.56-.09Z" fill="#e2dd79"/><path d="M597.02,317.31v-159.98l3.46-3.46-3.63-3.63v-50.11s1.49-25.81,19.37-25.81,22.24,14.75,22.24,26.48v49.04l-3.57,3.57,3.97,3.97v159.92h-41.84Z" fill="#66ddac"/><path d="M558.18,61.43s7.29-22.92,15.13-28.05c0,0-10-4.55-16.04-4.31,0,0-9.37,10.75-13.27,29.01,0,0,10.56,2.1,14.18,3.35Z" fill="#defcf0"/><path d="M483.79,149.57v-36.2s-1.17-12.99,12.99-12.99h100.07s.06-4.72,1.06-8.3h-108.59s-16.42-1.68-16.42,16.42v41.06s10.89-.17,10.89,0Z" fill="#f4efb3"/><path d="M638.45,99.96h104.07s21.28-1.01,21.28,21.28v-11.01s.85-9.48-7.23-15.52c0,0-1.49-2.77-19.03-2.77h-100.01s.81,4.91.9,8.01Z" fill="#f4efb3"/><path d="M472.9,149.57h123.95v.67l3.63,3.63-3.51,3.51h-108.02s-1.53-1.21-6.34-1.27-9.72-.15-9.72-.15v-6.39Z" fill="#bfb858"/><path d="M634.89,153.42l3.71-3.71h105.52v-49.74s19.13-.84,19.69,21.28c.56,22.12,0,56.31,0,56.31,0,0-15.01,3.52-20.44,7.76v-27.96h-104.52l-3.97-3.94Z" fill="#bfb858"/><polygon points="597.02 157.33 638.85 157.33 634.92 153.39 638.6 149.71 596.85 149.71 596.85 150.45 600.46 154.06 597.02 157.33" fill="#5baa89"/><path d="M494.9,167.5s11.84,3.35,13.18,12.74c1.34,9.38,0,137.08,0,137.08h-13.18s0-150.71,0-149.81Z" fill="#9b8d26"/></g><g id="e"><path d="M833.25,222.46s-33.07-.45-53.4-5.14-42.75-11.84-44.5-18.1,4.94-11.36,4.94-11.36c0,0,11.18-9.2,36.88-13.22,0,0,24.97-4.08,30.95-4.69s28.99-1.68,28.99-1.68l-3.07,54.18h-.78Z" fill="#afe2df"/><path d="M870.62,222.46s33.07-.45,53.4-5.14,42.75-11.84,44.5-18.1-4.94-11.36-4.94-11.36c0,0-11.18-9.2-36.88-13.22,0,0-24.97-4.08-30.95-4.69s-28.99-1.68-28.99-1.68l3.07,54.18h.78Z" fill="#afe2df"/><path d="M735.35,199.23l.52,32.5s5.6,8.62,18.67,12.3c13.07,3.69,38.43,9.5,49.83,10.17,11.4.67,29.21,1.17,29.21,1.17l.45-32.9s-35.7-1.68-44.75-3.24c-9.05-1.56-44.19-8.15-53.94-20Z" fill="#89dbd5"/><path d="M968.82,199.23l-.52,32.5s-5.6,8.62-18.67,12.3-38.43,9.5-49.83,10.17c-11.4.67-29.21,1.17-29.21,1.17l-.45-32.9s35.7-1.68,44.75-3.24c9.05-1.56,44.19-8.15,53.94-20Z" fill="#89dbd5"/><path d="M742.03,238.1v79.21h90.66l.89-61.95s-30.89-.73-46.31-3.74c-15.42-3.02-30.05-4.02-45.25-13.52Z" fill="#89dbd5" opacity=".79"/><path d="M961.69,238.1v79.21h-90.66l-.89-61.95s30.89-.73,46.31-3.74c15.42-3.02,30.05-4.02,45.25-13.52Z" fill="#89dbd5" opacity=".79"/><path d="M837.1,168.28l-3.07,54.18s18.73,2.35,36.59,0l-3.85-54.18s-14.18-.78-29.67,0Z" fill="#f2b194"/><path d="M834.03,222.46l-.45,32.9h37.01l.04-32.9s-34.08-.84-36.59,0Z" fill="#f88e54"/><polygon points="833.58 255.36 832.69 317.31 871.03 317.31 870.59 255.36 833.58 255.36" fill="#f88e54"/><path d="M742.03,244.58s16.59,19.89,91.42,20.33l.14-9.55s-68.54-1.62-91.55-17.26v6.48Z" fill="#5ea5a0"/><path d="M931.05,215.9v32.8s29.44-4.91,37.77-16.77v-32.71c.18-.43-6.06,9.29-37.77,16.67Z" fill="#6ab7b0"/><polygon points="931.05 258.28 947.08 253.04 961.69 248.27 961.69 317.31 931.5 317.31 931.05 258.28" fill="#6ab7b0"/><path d="M870.59,265.08s43.48,2.8,91.1-16.81v-10.17s-29.4,16.25-91.1,17.26v9.71Z" fill="#5ea5a0"/><polygon points="833.58 255.36 870.59 255.36 870.59 265.08 833.44 264.92 833.58 255.36" fill="#bf6d43"/><path d="M746.13,206.89v33.67s-8.15-4.44-10.26-8.84l-.52-32.5s7.46,6.55,10.78,7.66Z" fill="#bdefea"/><path d="M752.18,251.34l.12,65.97h-10.28v-72.73s5.06,4.52,10.16,6.76Z" fill="#bdf2ee"/></g></g></svg>